HIERARCHY
ROOT hip
{
	OFFSET 0.000000 0.000000 0.000000 
	CHANNELS 6 Xposition Yposition Zposition Xrotation Zrotation Yrotation
	JOINT abdomen
	{
		OFFSET 0.000000 3.402643 0.000000 
		CHANNELS 3 Xrotation Zrotation Yrotation
		JOINT chest
		{
			OFFSET 0.000000 8.438565 -0.680529 
			CHANNELS 3 Xrotation Zrotation Yrotation
			JOINT neck
			{
				OFFSET 0.000000 10.207942 -0.272212 
				CHANNELS 3 Xrotation Zrotation Yrotation
				JOINT head
				{
					OFFSET 0.000000 3.130431 0.000000 
					CHANNELS 3 Xrotation Zrotation Yrotation
					End Site
					{
						OFFSET 0.000000 3.130435 0.000000 
					}
				}
			}
			JOINT lCollar
			{
				OFFSET 3.470700 6.669187 -0.816635 
				CHANNELS 3 Yrotation Zrotation Xrotation
				JOINT lShldr
				{
					OFFSET 3.198488 0.000000 0.000000 
					CHANNELS 3 Zrotation Yrotation Xrotation
					JOINT lForeArm
					{
						OFFSET 10.139888 0.000000 0.000000 
						CHANNELS 3 Yrotation Zrotation Xrotation
						JOINT lHand
						{
							OFFSET 8.370511 0.000000 0.000000 
							CHANNELS 3 Zrotation Yrotation Xrotation
							End Site
							{
								OFFSET 4.083176 0.000000 0.000000 
							}
						}
					}
				}
			}
			JOINT rCollar
			{
				OFFSET -3.470700 6.669187 -0.816635 
				CHANNELS 3 Yrotation Zrotation Xrotation
				JOINT rShldr
				{
					OFFSET -3.198488 0.000000 0.000000 
					CHANNELS 3 Zrotation Yrotation Xrotation
					JOINT rForeArm
					{
						OFFSET -10.139888 0.000000 0.000000 
						CHANNELS 3 Yrotation Zrotation Xrotation
						JOINT rHand
						{
							OFFSET -8.370511 0.000000 0.000000 
							CHANNELS 3 Zrotation Yrotation Xrotation
							End Site
							{
								OFFSET -4.083176 0.000000 0.000000 
							}
						}
					}
				}
			}
		}
	}
	JOINT lThigh
	{
		OFFSET 5.308129 -1.633274 1.361059 
		CHANNELS 3 Xrotation Zrotation Yrotation
		JOINT lShin
		{
			OFFSET -2.041588 -20.007561 0.000000 
			CHANNELS 3 Xrotation Zrotation Yrotation
			JOINT lFoot
			{
				OFFSET 0.000000 -19.190928 -1.224953 
				CHANNELS 3 Xrotation Yrotation Zrotation
				End Site
				{
					OFFSET 0.000000 -2.449906 4.627600 
				}
			}
		}
	}
	JOINT rThigh
	{
		OFFSET -5.308129 -1.633274 1.361059 
		CHANNELS 3 Xrotation Zrotation Yrotation
		JOINT rShin
		{
			OFFSET 2.041588 -20.007561 0.000000 
			CHANNELS 3 Xrotation Zrotation Yrotation
			JOINT rFoot
			{
				OFFSET 0.000000 -19.190928 -1.224953 
				CHANNELS 3 Xrotation Yrotation Zrotation
				End Site
				{
					OFFSET 0.000000 -2.449906 4.627600 
				}
			}
		}
	}
}
MOTION
Frames: 18
Frame Time: 0.011111
14.266311 53.403519 -4.864523 -2.924303 6.256686 -93.199478 11.366222 -4.638206 0.004624 -14.482335 -0.456187 0.312490 -19.276867 7.773829 9.362378 60.145649 -36.890224 -1.347620 3.554561 -11.856053 1.830316 -66.916702 -34.106937 24.928858 -45.134857 6.417933 6.254716 8.524705 12.647240 -46.057995 1.017460 16.414410 0.108193 63.105854 21.612225 7.425653 48.112476 -7.247864 7.407129 -8.534408 -12.637552 46.253769 -5.715260 4.808832 -2.599562 27.238817 -5.478611 -4.506220 -33.184372 5.789583 2.221376 -6.472905 -9.840679 -3.033178 23.145981 5.662209 3.923687 -29.605343 -7.159728 -1.898393 
14.012464 53.328480 -4.774797 -3.702342 5.956291 -93.060402 10.901360 -5.379977 -0.189534 -13.730290 -0.538982 0.306793 -19.569145 8.129113 9.431435 58.926842 -37.465023 -0.733504 3.554561 -11.856053 1.830316 -67.025314 -33.878506 24.701912 -45.372326 6.492165 6.340876 8.524705 12.647240 -45.989635 1.017460 16.414410 0.108193 63.038960 21.580708 6.938080 48.091969 -7.245332 7.406585 -8.534408 -12.637552 46.224468 -4.691863 3.716823 -2.515744 27.160864 -5.468873 -4.497073 -33.413078 5.488648 2.124051 -5.945902 -11.490513 -7.460966 23.361166 5.638904 3.977533 -27.603704 -4.295809 -0.093209 
14.244123 53.381332 -4.870396 -2.716992 6.431126 -93.087677 11.286035 -4.606600 0.076523 -14.560455 -0.477242 0.330470 -19.866444 8.592908 9.478004 57.574661 -38.026234 -0.051624 3.554561 -11.856053 1.830316 -67.081772 -33.602951 24.376060 -45.711357 6.584517 6.465832 8.524705 12.647240 -45.882214 1.017460 16.414410 0.108193 62.965328 21.470793 6.704514 48.195965 -7.272162 7.444506 -8.534408 -12.637552 46.410015 -6.002771 5.046477 -2.617658 27.378248 -5.479052 -4.518582 -33.208504 5.679382 2.197232 -6.484025 -9.598631 -2.706955 23.230280 5.643916 3.937035 -30.208233 -6.789251 -1.912330 
14.080655 53.288673 -4.797963 -3.066743 6.269222 -92.947327 10.961070 -4.866556 -0.146028 -14.130500 -0.680165 0.274579 -19.951830 9.028760 9.405778 55.896427 -38.360378 0.603676 3.554561 -11.856053 1.830316 -67.089455 -33.348587 23.975204 -45.907398 6.643002 6.545498 8.524705 12.647240 -45.491585 1.017460 16.414410 0.108193 62.903618 21.302639 6.601359 48.310616 -7.303569 7.491340 -8.534408 -12.637552 46.556503 -5.411341 4.495478 -2.554531 27.330717 -5.464698 -4.520713 -33.306541 5.481820 2.087909 -5.994419 -10.533442 -5.341077 23.360899 5.642882 3.958852 -29.177193 -4.577933 -0.549222 
14.007244 53.295197 -4.765007 -3.157934 6.269622 -92.847282 10.800519 -4.912551 -0.396581 -14.022941 -0.740739 0.197539 -20.153172 9.533625 9.504531 54.381695 -39.008507 1.426491 3.554561 -11.856053 1.830316 -67.188194 -33.120480 23.421452 -45.969181 6.660770 6.573362 8.524705 12.647240 -45.100964 1.017460 16.414410 0.108193 62.783966 21.122810 6.596449 48.528202 -7.355028 7.577930 -8.534408 -12.637552 46.849468 -5.268233 4.312536 -2.532426 27.378248 -5.479057 -4.518583 -33.394299 5.260901 2.006772 -5.924603 -10.871254 -7.097778 23.250658 5.644116 3.929111 -27.951992 -4.256755 -0.127963 
14.018337 53.347073 -4.768598 -2.986468 6.382599 -92.796463 10.800184 -4.796428 -0.470761 -14.218257 -0.736797 0.170949 -20.204741 10.058033 9.578318 52.893154 -39.631153 2.182067 3.554561 -11.856053 1.830316 -67.286469 -32.882603 22.891668 -45.938393 6.651592 6.555117 8.524705 12.647240 -45.091194 1.017460 16.414410 0.108193 62.645233 20.932583 6.480811 48.788815 -7.423092 7.680963 -8.534408 -12.637552 47.249859 -5.368748 4.519689 -2.476681 27.280388 -5.469225 -4.507646 -33.284683 5.207110 1.935186 -6.188200 -10.627441 -6.989075 23.341127 5.642792 3.947362 -27.851904 -4.817257 -0.373963 
14.054553 53.373829 -4.777407 -2.758872 6.457174 -92.768410 10.924069 -4.676784 -0.390371 -14.501501 -0.727273 0.185341 -20.264896 10.509914 9.643737 51.434799 -40.132156 2.965359 3.554561 -11.856053 1.830316 -67.387093 -32.693520 22.449808 -45.845623 6.625165 6.518810 8.524705 12.647240 -45.530647 1.017460 16.414410 0.108193 62.509392 20.664286 6.231946 49.152534 -7.508977 7.827614 -8.534408 -12.637552 47.689308 -5.543549 4.802079 -2.516383 27.200068 -5.468994 -4.520012 -33.201290 5.317226 1.978283 -6.285707 -10.266316 -6.176354 23.360895 5.642885 3.958852 -28.346846 -5.209738 -0.661630 
14.065973 53.389168 -4.781322 -2.646334 6.470767 -92.719147 11.050503 -4.632998 -0.395297 -14.774995 -0.697235 0.191795 -20.337255 10.846128 9.751627 50.009518 -40.504429 3.819480 3.554561 -11.856053 1.830316 -67.532356 -32.395405 21.980007 -45.835903 6.626620 6.517382 8.524705 12.647240 -45.765022 1.017460 16.414410 0.108193 62.360264 20.229441 5.967123 49.621876 -7.622079 8.011786 -8.534408 -12.637552 48.128765 -5.678233 4.946948 -2.530322 27.268684 -5.478762 -4.508883 -33.142208 5.394603 1.998369 -6.200969 -10.086931 -5.773635 23.200468 5.643749 3.924655 -28.504932 -5.467585 -0.816591 
14.057490 53.389812 -4.780669 -2.624291 6.453928 -92.623886 11.063417 -4.656681 -0.552923 -14.862947 -0.633747 0.150165 -20.526402 11.098989 9.916305 48.655846 -40.662754 4.889613 3.554561 -11.856053 1.830316 -67.636932 -32.079117 21.645914 -45.958645 6.655449 6.564956 8.524705 12.647240 -45.432995 1.017460 16.414410 0.108193 62.231125 20.039545 5.434865 49.934677 -7.692787 8.130260 -8.534408 -12.637552 48.294777 -5.757521 4.967416 -2.478567 27.439949 -5.464928 -4.540097 -33.074055 5.320853 1.937561 -6.081682 -10.033982 -5.676600 22.977198 5.653790 3.896602 -28.387535 -5.770293 -0.940927 
14.070216 53.383945 -4.781975 -2.480312 6.469228 -92.518791 11.122650 -4.552125 -0.667295 -14.784842 -0.600838 0.113421 -20.928946 11.325421 10.028405 47.202290 -40.755527 5.947801 3.554561 -11.856053 1.830316 -67.723206 -32.007774 21.447786 -46.155003 6.712459 6.635497 8.524705 12.647240 -45.042370 1.017460 16.414410 0.108193 62.087101 20.249802 4.720135 50.091530 -7.730867 8.198492 -8.534408 -12.637552 48.285015 -5.932789 5.142789 -2.511036 27.580481 -5.459035 -4.551872 -33.027000 5.232775 1.878982 -6.110655 -9.818974 -5.260444 22.792063 5.673571 3.864091 -28.466047 -6.399380 -1.248503 
14.095013 53.392097 -4.779038 -2.282011 6.524276 -92.424057 11.218451 -4.407332 -0.673373 -14.862968 -0.599704 0.104524 -20.990738 11.681212 10.052946 45.389889 -41.128918 6.797073 3.554561 -11.856053 1.830316 -67.787285 -31.888323 21.264078 -46.351238 6.769376 6.716272 8.524705 12.647240 -45.022839 1.017460 16.414410 0.108193 62.017269 20.296371 3.988474 50.425888 -7.807263 8.336807 -8.534408 -12.637552 48.460796 -6.140306 5.359538 -2.572062 27.650141 -5.459371 -4.558076 -32.982048 5.201849 1.853113 -6.062334 -9.517187 -5.434396 22.681437 5.672963 3.854319 -28.259014 -6.813543 -1.385177 
14.107411 53.406460 -4.768270 -2.331907 6.602249 -92.380028 11.230450 -4.564532 -0.688337 -15.019248 -0.579978 0.108067 -20.979399 12.103223 10.082048 43.767479 -41.467628 7.599261 3.554561 -11.856053 1.830316 -67.835464 -31.642347 20.987083 -46.485695 6.808466 6.770360 8.524705 12.647240 -45.140026 1.017460 16.414410 0.108193 61.955429 20.128231 3.308999 50.980076 -7.927639 8.558202 -8.534408 -12.637552 48.929546 -6.265458 5.309379 -2.608464 27.680031 -5.459266 -4.560676 -32.938992 5.234490 1.851171 -6.099751 -9.543407 -5.188180 22.621117 5.672483 3.848963 -28.450504 -6.900967 -1.461542 
14.110022 53.415272 -4.758482 -2.426612 6.679118 -92.347511 11.235180 -4.741669 -0.814758 -15.107221 -0.490452 0.097966 -21.156080 12.520055 10.159018 42.364422 -41.696262 8.492380 3.554561 -11.856053 1.830316 -67.945595 -31.443127 20.643337 -46.640465 6.850857 6.833501 8.524705 12.647240 -45.110729 1.017460 16.414410 0.108193 61.769737 20.151472 2.598189 51.346207 -8.002923 8.700444 -8.534408 -12.637552 49.544781 -6.354440 5.183330 -2.685129 27.682560 -5.445131 -4.557486 -32.928230 5.236259 1.863728 -6.197209 -9.630953 -4.981336 22.621117 5.672483 3.848963 -28.579775 -6.985552 -1.565366 
14.092075 53.405479 -4.746083 -2.357245 6.652541 -92.283592 11.294509 -4.633539 -0.971917 -15.156091 -0.426466 0.045641 -21.284966 12.846454 10.297426 41.007057 -41.946350 9.455717 3.554561 -11.856053 1.830316 -68.173592 -31.210556 20.126989 -46.816837 6.901867 6.896866 8.524705 12.647240 -45.198620 1.017460 16.414410 0.108193 61.475368 20.220030 1.878862 51.640125 -8.067768 8.831189 -8.534408 -12.637552 50.130718 -6.287694 5.223575 -2.823991 27.639875 -5.459283 -4.566886 -33.095249 5.162319 1.853097 -6.122172 -9.597492 -4.884360 22.671387 5.672884 3.853427 -28.808359 -6.833614 -1.544759 
14.066953 53.387863 -4.726508 -2.248547 6.616674 -92.229912 11.312025 -4.465582 -1.019316 -15.195146 -0.434312 0.025564 -21.418924 13.054060 10.416051 39.784550 -42.035324 10.314221 3.554561 -11.856053 1.830316 -68.362274 -30.989077 19.653721 -46.909801 6.926674 6.933140 8.524705 12.647240 -45.413464 1.017460 16.414410 0.108193 61.245461 20.124590 1.315133 52.217880 -8.186985 9.068116 -8.534408 -12.637552 50.521343 -6.171107 5.311906 -2.797139 27.590750 -5.459118 -4.543058 -33.159576 5.039526 1.810719 -6.072409 -9.556787 -5.228423 22.764215 5.662135 3.869987 -28.706642 -6.640208 -1.435836 
14.053902 53.380680 -4.710193 -2.413339 6.623096 -92.237686 11.277448 -4.722527 -1.049186 -15.234232 -0.406043 0.038335 -21.484934 13.394101 10.419781 38.603184 -42.235806 10.926582 3.554561 -11.856053 1.830316 -68.347336 -30.882082 19.609386 -46.867310 6.906832 6.908656 8.524705 12.647240 -45.442757 1.017460 16.414410 0.108193 61.180702 20.034538 0.895997 52.606014 -8.259876 9.224240 -8.534408 -12.637552 51.751812 -6.102282 5.135777 -2.584482 27.551992 -5.449503 -4.556821 -32.968098 5.008539 1.739791 -6.191071 -9.794052 -5.544239 22.866936 5.653259 3.877141 -28.419678 -6.647939 -1.351170 
14.041828 53.375462 -4.700405 -2.706959 6.577842 -92.258400 11.314246 -5.150679 -1.083768 -15.263584 -0.319426 0.056477 -21.454426 13.721998 10.435831 37.206181 -42.377785 11.626035 3.554561 -11.856053 1.830316 -68.325645 -30.843735 19.501442 -46.691994 6.862053 6.843683 8.524705 12.647240 -45.511120 1.017460 16.414410 0.108193 61.088585 20.158567 -0.606882 52.878750 -8.309662 9.340130 -8.534408 -12.637552 51.214706 -5.955377 4.832742 -2.444220 27.530678 -5.459041 -4.547501 -32.829571 4.943017 1.669996 -6.220633 -10.116885 -5.282126 22.935148 5.662945 3.885053 -28.653503 -6.614853 -1.391422 
14.023232 53.372196 -4.692900 -2.751668 6.489743 -92.229370 11.355713 -5.238760 -1.133513 -15.224558 -0.240768 0.053890 -21.492790 13.816171 10.592146 35.640568 -42.262470 12.680910 3.554561 -11.856053 1.830316 -68.434456 -30.830223 19.094162 -46.558327 6.830176 6.796291 8.524705 12.647240 -45.599010 1.017460 16.414410 0.108193 60.929913 20.241350 -1.620679 53.626713 -8.448037 9.646941 -8.534408 -12.637552 51.556499 -5.839674 4.765491 -2.389495 27.511086 -5.458987 -4.536032 -32.738686 4.966010 1.658824 -6.130775 -10.171109 -5.087546 23.014933 5.667436 3.883195 -28.904484 -6.590880 -1.450007 
